# xmcd
#
# Track frame offsets: 
#        150
#        21585
#        38752
#        57132
#        79420
#        105980
#        126652
#
# Disc length: 2003 seconds
#
# Revision: 0
# Processed by: cddbd v1.5PL3 Copyright (c) Steve Scherf et al.
# Submitted via: ExactAudioCopy v0.95a4
#
DISCID=5b07d107
DTITLE=Eddie Burks - Vampire Woman
DYEAR=1990
DGENRE=Blues
TTITLE0=I'm A Lover
TTITLE1=Vampire Woman
TTITLE2=Just Got Married
TTITLE3=O'Hare Field
TTITLE4=Bald Headed Eagle
TTITLE5=Hey Mr. Bluesman
TTITLE6=Tell Me Why
EXTD=
EXTT0=
EXTT1=
EXTT2=
EXTT3=
EXTT4=
EXTT5=
EXTT6=
PLAYORDER=
